# xmcd
#
# Track frame offsets: 
#        150
#        26288
#        55409
#        83086
#        106882
#        128370
#        142831
#        165125
#        187919
#        212183
#        232125
#        256936
#        283589
#
# Disc length: 4017 seconds
#
# Revision: 2
# Processed by: cddbd v1.5.2PL0 Copyright (c) Steve Scherf et al.
# Submitted via: ExactAudioCopyFreeDBPlugin 1.0
#
DISCID=a10faf0d
DTITLE=傲日格勒 - DTSES黑马琴
DYEAR=2010
DGENRE=DTSES
TTITLE0=岁月中秋
TTITLE1=蒙古人
TTITLE2=向往神鹰
TTITLE3=佛
TTITLE4=天边
TTITLE5=火苗
TTITLE6=姑娘我爱你
TTITLE7=父亲的草原母亲的河
TTITLE8=慈祥的母亲
TTITLE9=美丽的蒙古高原
TTITLE10=可爱的一朵玫瑰花
TTITLE11=玛尼墙
TTITLE12=黑马归来
EXTD=
EXTT0=
EXTT1=
EXTT2=
EXTT3=
EXTT4=
EXTT5=
EXTT6=
EXTT7=
EXTT8=
EXTT9=
EXTT10=
EXTT11=
EXTT12=
PLAYORDER=
